<?xml version="1.0" encoding="UTF-8"?>
<svg version="1.1" xmlns="http://www.w3.org/2000/svg" width="200" height="200">
<path d="M0 0 C66 0 132 0 200 0 C200 66 200 132 200 200 C134 200 68 200 0 200 C0 134 0 68 0 0 Z " fill="#FDFDFD" transform="translate(0,0)"/>
<path d="M0 0 C16.17 0 32.34 0 49 0 C49 2.31 49 4.62 49 7 C51.31 7 53.62 7 56 7 C56 11.62 56 16.24 56 21 C34.88 21 13.76 21 -8 21 C-8 16.38 -8 11.76 -8 7 C-5.36 7 -2.72 7 0 7 C0 4.69 0 2.38 0 0 Z " fill="#080808" transform="translate(76,80)"/>
<path d="M0 0 C2.31 0 4.62 0 7 0 C7 2.31 7 4.62 7 7 C9.31 7 11.62 7 14 7 C14 9.31 14 11.62 14 14 C16.31 14 18.62 14 21 14 C21 16.31 21 18.62 21 21 C25.62 21 30.24 21 35 21 C35 18.69 35 16.38 35 14 C47.21 14 59.42 14 72 14 C72 16.31 72 18.62 72 21 C76.29 21 80.58 21 85 21 C85 18.69 85 16.38 85 14 C87.31 14 89.62 14 92 14 C92 11.69 92 9.38 92 7 C94.64 7 97.28 7 100 7 C100 4.69 100 2.38 100 0 C102.31 0 104.62 0 107 0 C107 2.64 107 5.28 107 8 C104.69 8 102.38 8 100 8 C100 10.31 100 12.62 100 15 C98.02 15 96.04 15 94 15 C94 17.31 94 19.62 94 22 C91.36 22 88.72 22 86 22 C86 23.98 86 25.96 86 28 C88.64 28 91.28 28 94 28 C94 30.64 94 33.28 94 36 C95.98 36 97.96 36 100 36 C100 40.62 100 45.24 100 50 C97.36 50 94.72 50 92 50 C92 45.38 92 40.76 92 36 C89.69 36 87.38 36 85 36 C85 33.69 85 31.38 85 29 C80.38 29 75.76 29 71 29 C71 26.69 71 24.38 71 22 C59.45 22 47.9 22 36 22 C36 24.31 36 26.62 36 29 C31.05 29 26.1 29 21 29 C21 26.69 21 24.38 21 22 C18.69 22 16.38 22 14 22 C14 19.69 14 17.38 14 15 C12.2984375 15.0309375 12.2984375 15.0309375 10.5625 15.0625 C7 15 7 15 6 14 C5.95919217 12.00041636 5.95745644 9.99954746 6 8 C4.02 8 2.04 8 0 8 C0 5.36 0 2.72 0 0 Z " fill="#7B7B7B" transform="translate(47,44)"/>
<path d="M0 0 C3.81248426 -0.02887236 7.6249407 -0.04675492 11.4375 -0.0625 C12.52611328 -0.07087891 13.61472656 -0.07925781 14.73632812 -0.08789062 C15.77080078 -0.09111328 16.80527344 -0.09433594 17.87109375 -0.09765625 C18.82943115 -0.10289307 19.78776855 -0.10812988 20.77514648 -0.11352539 C23 0 23 0 24 1 C24.04092937 3.33297433 24.04241723 5.66705225 24 8 C26.31 8 28.62 8 31 8 C31 10.64 31 13.28 31 16 C28.69 16 26.38 16 24 16 C24 18.64 24 21.28 24 24 C18.72 24 13.44 24 8 24 C8 26.31 8 28.62 8 31 C15.59 31 23.18 31 31 31 C31 33.64 31 36.28 31 39 C20.77 39 10.54 39 0 39 C0 33.72 0 28.44 0 23 C2.64 23 5.28 23 8 23 C8 20.36 8 17.72 8 15 C12.95 15 17.9 15 23 15 C23 13.02 23 11.04 23 9 C15.41 9 7.82 9 0 9 C0 6.03 0 3.06 0 0 Z " fill="#898989" transform="translate(123,112)"/>
<path d="M0 0 C7.59 0 15.18 0 23 0 C23 2.97 23 5.94 23 9 C15.74 9 8.48 9 1 9 C1 15.93 1 22.86 1 30 C5.29 30 9.58 30 14 30 C14 28.02 14 26.04 14 24 C12.02 24 10.04 24 8 24 C8 21.36 8 18.72 8 16 C12.62 16 17.24 16 22 16 C22 20.95 22 25.9 22 31 C19.69 31 17.38 31 15 31 C15 33.64 15 36.28 15 39 C9.72 39 4.44 39 -1 39 C-1 36.36 -1 33.72 -1 31 C-3.31 31 -5.62 31 -8 31 C-8.02887512 27.35418313 -8.04675585 23.70839537 -8.0625 20.0625 C-8.07087891 19.02158203 -8.07925781 17.98066406 -8.08789062 16.90820312 C-8.09272461 15.42416992 -8.09272461 15.42416992 -8.09765625 13.91015625 C-8.10289307 12.99371338 -8.10812988 12.07727051 -8.11352539 11.13305664 C-8 9 -8 9 -7 8 C-4.66702567 7.95907063 -2.33294775 7.95758277 0 8 C0 5.36 0 2.72 0 0 Z " fill="#929292" transform="translate(93,112)"/>
<path d="M0 0 C2.31 0 4.62 0 7 0 C7 2.31 7 4.62 7 7 C12.61 7 18.22 7 24 7 C24 4.69 24 2.38 24 0 C25.98 0 27.96 0 30 0 C30 9.57 30 19.14 30 29 C28.02 29 26.04 29 24 29 C24 24.05 24 19.1 24 14 C18.39 14 12.78 14 7 14 C7 18.95 7 23.9 7 29 C4.69 29 2.38 29 0 29 C0 19.43 0 9.86 0 0 Z " fill="#060606" transform="translate(47,121)"/>
<path d="M0 0 C5.61 0 11.22 0 17 0 C17 2.31 17 4.62 17 7 C19.31 7 21.62 7 24 7 C24 17.23 24 27.46 24 38 C21.03 38 18.06 38 15 38 C15 33.05 15 28.1 15 23 C10.38 23 5.76 23 1 23 C1 27.95 1 32.9 1 38 C-1.97 38 -4.94 38 -8 38 C-8 27.77 -8 17.54 -8 7 C-5.36 7 -2.72 7 0 7 C0 4.69 0 2.38 0 0 Z M-7 8 C-7 17.57 -7 27.14 -7 37 C-4.69 37 -2.38 37 0 37 C0 32.05 0 27.1 0 22 C5.61 22 11.22 22 17 22 C17 26.95 17 31.9 17 37 C18.98 37 20.96 37 23 37 C23 27.43 23 17.86 23 8 C21.02 8 19.04 8 17 8 C17 10.31 17 12.62 17 15 C11.39 15 5.78 15 0 15 C0 12.69 0 10.38 0 8 C-2.31 8 -4.62 8 -7 8 Z " fill="#8E8E8E" transform="translate(54,113)"/>
<path d="M0 0 C2.31 0 4.62 0 7 0 C7 2.31 7 4.62 7 7 C14.59 7 22.18 7 30 7 C30 9.31 30 11.62 30 14 C20.1 14 10.2 14 0 14 C0 9.38 0 4.76 0 0 Z " fill="#060606" transform="translate(124,136)"/>
<path d="M0 0 C11.55 0 23.1 0 35 0 C35 1.98 35 3.96 35 6 C23.45 6 11.9 6 0 6 C0 4.02 0 2.04 0 0 Z " fill="#010101" transform="translate(83,59)"/>
<path d="M0 0 C2.31 0 4.62 0 7 0 C7 2.31 7 4.62 7 7 C9.31 7 11.62 7 14 7 C14 9.31 14 11.62 14 14 C16.31 14 18.62 14 21 14 C21 16.31 21 18.62 21 21 C18.69 21 16.38 21 14 21 C14 19.02 14 17.04 14 15 C12.2984375 15.0309375 12.2984375 15.0309375 10.5625 15.0625 C7 15 7 15 6 14 C5.95919217 12.00041636 5.95745644 9.99954746 6 8 C4.02 8 2.04 8 0 8 C0 5.36 0 2.72 0 0 Z " fill="#7C7C7C" transform="translate(47,44)"/>
<path d="M0 0 C4.62 0 9.24 0 14 0 C14 4.95 14 9.9 14 15 C11.69 15 9.38 15 7 15 C7 12.36 7 9.72 7 7 C4.69 7 2.38 7 0 7 C0 4.69 0 2.38 0 0 Z " fill="#080808" transform="translate(101,128)"/>
<path d="M0 0 C7.26 0 14.52 0 22 0 C22 2.31 22 4.62 22 7 C14.74 7 7.48 7 0 7 C0 4.69 0 2.38 0 0 Z " fill="#0A0A0A" transform="translate(124,113)"/>
<path d="M0 0 C7.26 0 14.52 0 22 0 C22 2.31 22 4.62 22 7 C14.74 7 7.48 7 0 7 C0 4.69 0 2.38 0 0 Z " fill="#090909" transform="translate(93,113)"/>
<path d="M0 0 C2.31 0 4.62 0 7 0 C7 2.31 7 4.62 7 7 C4.69 7 2.38 7 0 7 C0 11.62 0 16.24 0 21 C-2.31 21 -4.62 21 -7 21 C-7 16.05 -7 11.1 -7 6 C-4.69 6 -2.38 6 0 6 C0 4.02 0 2.04 0 0 Z " fill="#010101" transform="translate(61,73)"/>
<path d="M0 0 C1.98 0 3.96 0 6 0 C6 6.93 6 13.86 6 21 C4.02 21 2.04 21 0 21 C0 14.07 0 7.14 0 0 Z " fill="#000000" transform="translate(86,121)"/>
<path d="M0 0 C4.95 0 9.9 0 15 0 C15 2.31 15 4.62 15 7 C10.05 7 5.1 7 0 7 C0 4.69 0 2.38 0 0 Z " fill="#0A0A0A" transform="translate(93,143)"/>
<path d="M0 0 C4.95 0 9.9 0 15 0 C15 2.31 15 4.62 15 7 C10.05 7 5.1 7 0 7 C0 4.69 0 2.38 0 0 Z " fill="#0D0D0D" transform="translate(131,128)"/>
<path d="M0 0 C4.62 0 9.24 0 14 0 C14 2.31 14 4.62 14 7 C9.38 7 4.76 7 0 7 C0 4.69 0 2.38 0 0 Z " fill="#030303" transform="translate(55,113)"/>
<path d="M0 0 C4.62 0 9.24 0 14 0 C14 1.98 14 3.96 14 6 C9.38 6 4.76 6 0 6 C0 4.02 0 2.04 0 0 Z " fill="#FDFDFD" transform="translate(55,121)"/>
<path d="M0 0 C1.98 0 3.96 0 6 0 C6 4.62 6 9.24 6 14 C4.02 14 2.04 14 0 14 C0 9.38 0 4.76 0 0 Z " fill="#101010" transform="translate(141,80)"/>
<path d="M0 0 C4.29 0 8.58 0 13 0 C13 1.98 13 3.96 13 6 C8.71 6 4.42 6 0 6 C0 4.02 0 2.04 0 0 Z " fill="#060606" transform="translate(119,66)"/>
<path d="M0 0 C4.29 0 8.58 0 13 0 C13 1.98 13 3.96 13 6 C8.71 6 4.42 6 0 6 C0 4.02 0 2.04 0 0 Z " fill="#060606" transform="translate(69,66)"/>
<path d="M0 0 C2.31 0 4.62 0 7 0 C7 2.31 7 4.62 7 7 C0.565 7.495 0.565 7.495 -6 8 C-6 12.29 -6 16.58 -6 21 C-6.33 21 -6.66 21 -7 21 C-7 16.05 -7 11.1 -7 6 C-4.69 6 -2.38 6 0 6 C0 4.02 0 2.04 0 0 Z " fill="#2C2C2C" transform="translate(61,73)"/>
<path d="M0 0 C2.97 0 5.94 0 9 0 C9 2.64 9 5.28 9 8 C6.03 8 3.06 8 0 8 C0 5.36 0 2.72 0 0 Z " fill="#C1C1C1" transform="translate(82,86)"/>
<path d="M0 0 C2.31 0 4.62 0 7 0 C7 2.31 7 4.62 7 7 C4.69 7 2.38 7 0 7 C0 4.69 0 2.38 0 0 Z " fill="#EDEDED" transform="translate(111,87)"/>
<path d="M0 0 C2.31 0 4.62 0 7 0 C7 2.31 7 4.62 7 7 C4.69 7 2.38 7 0 7 C0 4.69 0 2.38 0 0 Z " fill="#121212" transform="translate(147,44)"/>
<path d="M0 0 C2.31 0 4.62 0 7 0 C7 2.31 7 4.62 7 7 C4.69 7 2.38 7 0 7 C0 4.69 0 2.38 0 0 Z " fill="#121212" transform="translate(47,44)"/>
<path d="M0 0 C2.31 0 4.62 0 7 0 C7 1.98 7 3.96 7 6 C4.69 6 2.38 6 0 6 C0 4.02 0 2.04 0 0 Z " fill="#0A0A0A" transform="translate(61,59)"/>
<path d="M0 0 C1.98 0 3.96 0 6 0 C6 1.98 6 3.96 6 6 C4.02 6 2.04 6 0 6 C0 4.02 0 2.04 0 0 Z " fill="#010101" transform="translate(147,121)"/>
<path d="M0 0 C1.98 0 3.96 0 6 0 C6 1.98 6 3.96 6 6 C4.02 6 2.04 6 0 6 C0 4.02 0 2.04 0 0 Z " fill="#050505" transform="translate(133,73)"/>
<path d="M0 0 C1.98 0 3.96 0 6 0 C6 1.98 6 3.96 6 6 C4.02 6 2.04 6 0 6 C0 4.02 0 2.04 0 0 Z " fill="#050505" transform="translate(133,59)"/>
<path d="M0 0 C1.98 0 3.96 0 6 0 C6 1.98 6 3.96 6 6 C4.02 6 2.04 6 0 6 C0 4.02 0 2.04 0 0 Z " fill="#040404" transform="translate(55,52)"/>
<path d="M0 0 C1.65 0 3.3 0 5 0 C5 1.98 5 3.96 5 6 C3.35 6 1.7 6 0 6 C0 4.02 0 2.04 0 0 Z " fill="#040404" transform="translate(141,52)"/>
</svg>
